<svg width="29" height="25" viewBox="0 0 29 25" fill="none" xmlns="http://www.w3.org/2000/svg">
<path d="M10.1711 14.2314C11.4218 12.5415 13.2368 10.3153 15.3001 8.48112C18.2696 5.84158 22.8205 4.46247 24.7358 3.97491C25.1009 3.88199 25.4929 3.99464 25.7751 4.27687C26.0734 4.57515 26.1748 4.98517 26.0489 5.34632C25.4362 7.10387 23.7429 11.0233 20.2059 13.5956C17.239 15.7533 14.7117 17.1401 13.2264 17.8795C12.4964 18.243 11.6265 18.1769 10.9088 17.7284C9.67448 16.9569 9.33232 15.3648 10.1711 14.2314Z" stroke="white"/>
<path d="M0.5 24.3291L0.314302 23.8648L0.5 24.8291V24.3291ZM7.07635 24.3291V24.8291H8.28346L7.4299 23.9755L7.07635 24.3291ZM7.07633 24.3291V23.8291H5.86923L6.72278 24.6826L7.07633 24.3291ZM10.9606 19.9448C10.9606 22.09 9.22156 23.8291 7.07635 23.8291V24.8291C9.77384 24.8291 11.9606 22.6423 11.9606 19.9448H10.9606ZM7.07635 16.0606C9.22156 16.0606 10.9606 17.7996 10.9606 19.9448H11.9606C11.9606 17.2473 9.77384 15.0606 7.07635 15.0606V16.0606ZM3.19212 19.9448C3.19212 17.7996 4.93115 16.0606 7.07635 16.0606V15.0606C4.37887 15.0606 2.19212 17.2473 2.19212 19.9448H3.19212ZM0.5 24.3291C0.685698 24.7933 0.686019 24.7932 0.686349 24.7931C0.68647 24.793 0.686809 24.7929 0.687051 24.7928C0.687537 24.7926 0.688056 24.7924 0.68861 24.7921C0.689717 24.7917 0.690959 24.7912 0.692335 24.7906C0.695087 24.7895 0.698373 24.7881 0.702175 24.7865C0.70978 24.7832 0.719456 24.779 0.731065 24.7738C0.754276 24.7632 0.785252 24.7485 0.822869 24.7292C0.898058 24.6905 1.0001 24.6331 1.11987 24.5533C1.35937 24.3936 1.67105 24.1433 1.98017 23.7723C2.60504 23.0225 3.19212 21.8124 3.19212 19.9448H2.19212C2.19212 21.5846 1.68314 22.5667 1.21195 23.1321C0.973036 23.4188 0.736687 23.6069 0.565167 23.7212C0.47943 23.7784 0.410209 23.8169 0.365517 23.8399C0.343193 23.8514 0.327073 23.8589 0.318172 23.863C0.313725 23.865 0.311092 23.8661 0.310401 23.8664C0.310056 23.8666 0.310198 23.8665 0.310842 23.8662C0.311165 23.8661 0.311613 23.8659 0.312189 23.8657C0.312477 23.8656 0.312797 23.8654 0.313149 23.8653C0.313325 23.8652 0.313613 23.8651 0.313701 23.8651C0.313997 23.865 0.314302 23.8648 0.5 24.3291ZM7.07635 23.8291H0.5V24.8291H7.07635V23.8291ZM6.72278 24.6826L6.7228 24.6826L7.4299 23.9755L7.42989 23.9755L6.72278 24.6826ZM7.07635 23.8291C7.07635 23.8291 7.07635 23.8291 7.07635 23.8291C7.07635 23.8291 7.07635 23.8291 7.07635 23.8291C7.07635 23.8291 7.07635 23.8291 7.07635 23.8291C7.07635 23.8291 7.07635 23.8291 7.07635 23.8291C7.07635 23.8291 7.07635 23.8291 7.07635 23.8291C7.07635 23.8291 7.07635 23.8291 7.07635 23.8291C7.07635 23.8291 7.07635 23.8291 7.07635 23.8291C7.07635 23.8291 7.07635 23.8291 7.07635 23.8291C7.07635 23.8291 7.07635 23.8291 7.07635 23.8291C7.07635 23.8291 7.07635 23.8291 7.07635 23.8291C7.07635 23.8291 7.07635 23.8291 7.07635 23.8291C7.07635 23.8291 7.07635 23.8291 7.07635 23.8291C7.07635 23.8291 7.07635 23.8291 7.07635 23.8291C7.07635 23.8291 7.07635 23.8291 7.07635 23.8291C7.07635 23.8291 7.07635 23.8291 7.07635 23.8291C7.07635 23.8291 7.07635 23.8291 7.07635 23.8291C7.07635 23.8291 7.07635 23.8291 7.07635 23.8291C7.07635 23.8291 7.07635 23.8291 7.07635 23.8291C7.07635 23.8291 7.07635 23.8291 7.07635 23.8291C7.07635 23.8291 7.07635 23.8291 7.07635 23.8291C7.07635 23.8291 7.07635 23.8291 7.07635 23.8291C7.07635 23.8291 7.07635 23.8291 7.07635 23.8291C7.07635 23.8291 7.07635 23.8291 7.07635 23.8291C7.07635 23.8291 7.07635 23.8291 7.07635 23.8291C7.07635 23.8291 7.07635 23.8291 7.07635 23.8291C7.07635 23.8291 7.07635 23.8291 7.07635 23.8291C7.07635 23.8291 7.07635 23.8291 7.07635 23.8291C7.07635 23.8291 7.07635 23.8291 7.07635 23.8291C7.07635 23.8291 7.07635 23.8291 7.07635 23.8291C7.07635 23.8291 7.07635 23.8291 7.07635 23.8291C7.07635 23.8291 7.07635 23.8291 7.07635 23.8291C7.07635 23.8291 7.07635 23.8291 7.07635 23.8291C7.07635 23.8291 7.07635 23.8291 7.07635 23.8291C7.07635 23.8291 7.07635 23.8291 7.07635 23.8291C7.07635 23.8291 7.07635 23.8291 7.07635 23.8291C7.07635 23.8291 7.07635 23.8291 7.07635 23.8291C7.07635 23.8291 7.07635 23.8291 7.07635 23.8291C7.07635 23.8291 7.07635 23.8291 7.07635 23.8291C7.07635 23.8291 7.07635 23.8291 7.07635 23.8291C7.07635 23.8291 7.07635 23.8291 7.07635 23.8291C7.07635 23.8291 7.07635 23.8291 7.07635 23.8291C7.07635 23.8291 7.07635 23.8291 7.07635 23.8291C7.07635 23.8291 7.07635 23.8291 7.07635 23.8291C7.07635 23.8291 7.07635 23.8291 7.07635 23.8291C7.07635 23.8291 7.07635 23.8291 7.07635 23.8291C7.07635 23.8291 7.07635 23.8291 7.07635 23.8291C7.07635 23.8291 7.07635 23.8291 7.07635 23.8291C7.07635 23.8291 7.07635 23.8291 7.07635 23.8291C7.07635 23.8291 7.07635 23.8291 7.07635 23.8291C7.07635 23.8291 7.07635 23.8291 7.07635 23.8291C7.07635 23.8291 7.07635 23.8291 7.07635 23.8291C7.07635 23.8291 7.07635 23.8291 7.07635 23.8291C7.07635 23.8291 7.07635 23.8291 7.07635 23.8291C7.07635 23.8291 7.07635 23.8291 7.07635 23.8291C7.07635 23.8291 7.07635 23.8291 7.07635 23.8291C7.07635 23.8291 7.07635 23.8291 7.07635 23.8291C7.07635 23.8291 7.07635 23.8291 7.07635 23.8291C7.07635 23.8291 7.07635 23.8291 7.07635 23.8291C7.07635 23.8291 7.07635 23.8291 7.07635 23.8291C7.07635 23.8291 7.07635 23.8291 7.07635 23.8291C7.07635 23.8291 7.07635 23.8291 7.07635 23.8291C7.07635 23.8291 7.07635 23.8291 7.07635 23.8291C7.07635 23.8291 7.07635 23.8291 7.07635 23.8291C7.07635 23.8291 7.07635 23.8291 7.07635 23.8291C7.07635 23.8291 7.07635 23.8291 7.07635 23.8291C7.07635 23.8291 7.07635 23.8291 7.07635 23.8291C7.07635 23.8291 7.07635 23.8291 7.07635 23.8291C7.07635 23.8291 7.07635 23.8291 7.07635 23.8291C7.07635 23.8291 7.07635 23.8291 7.07635 23.8291C7.07635 23.8291 7.07635 23.8291 7.07635 23.8291C7.07635 23.8291 7.07635 23.8291 7.07635 23.8291C7.07635 23.8291 7.07635 23.8291 7.07635 23.8291C7.07635 23.8291 7.07635 23.8291 7.07635 23.8291C7.07635 23.8291 7.07635 23.8291 7.07635 23.8291C7.07635 23.8291 7.07635 23.8291 7.07635 23.8291C7.07635 23.8291 7.07635 23.8291 7.07635 23.8291C7.07635 23.8291 7.07635 23.8291 7.07635 23.8291C7.07635 23.8291 7.07635 23.8291 7.07635 23.8291C7.07635 23.8291 7.07635 23.8291 7.07635 23.8291C7.07635 23.8291 7.07635 23.8291 7.07635 23.8291C7.07635 23.8291 7.07635 23.8291 7.07635 23.8291C7.07635 23.8291 7.07635 23.8291 7.07635 23.8291C7.07635 23.8291 7.07635 23.8291 7.07635 23.8291C7.07635 23.8291 7.07635 23.8291 7.07635 23.8291C7.07635 23.8291 7.07635 23.8291 7.07635 23.8291C7.07635 23.8291 7.07635 23.8291 7.07635 23.8291C7.07635 23.8291 7.07635 23.8291 7.07635 23.8291C7.07635 23.8291 7.07635 23.8291 7.07635 23.8291C7.07635 23.8291 7.07635 23.8291 7.07635 23.8291C7.07635 23.8291 7.07635 23.8291 7.07635 23.8291C7.07635 23.8291 7.07635 23.8291 7.07635 23.8291C7.07635 23.8291 7.07635 23.8291 7.07635 23.8291C7.07635 23.8291 7.07635 23.8291 7.07635 23.8291C7.07635 23.8291 7.07635 23.8291 7.07635 23.8291C7.07635 23.8291 7.07635 23.8291 7.07635 23.8291C7.07635 23.8291 7.07635 23.8291 7.07635 23.8291C7.07635 23.8291 7.07635 23.8291 7.07635 23.8291C7.07635 23.8291 7.07635 23.8291 7.07635 23.8291C7.07635 23.8291 7.07635 23.8291 7.07635 23.8291C7.07635 23.8291 7.07635 23.8291 7.07635 23.8291C7.07635 23.8291 7.07635 23.8291 7.07635 23.8291C7.07635 23.8291 7.07635 23.8291 7.07635 23.8291C7.07635 23.8291 7.07635 23.8291 7.07635 23.8291C7.07635 23.8291 7.07635 23.8291 7.07635 23.8291C7.07635 23.8291 7.07635 23.8291 7.07635 23.8291C7.07635 23.8291 7.07635 23.8291 7.07635 23.8291C7.07635 23.8291 7.07635 23.8291 7.07635 23.8291C7.07635 23.8291 7.07635 23.8291 7.07635 23.8291C7.07635 23.8291 7.07635 23.8291 7.07635 23.8291C7.07635 23.8291 7.07635 23.8291 7.07635 23.8291C7.07635 23.8291 7.07635 23.8291 7.07635 23.8291C7.07635 23.8291 7.07635 23.8291 7.07635 23.8291C7.07635 23.8291 7.07635 23.8291 7.07635 23.8291C7.07635 23.8291 7.07635 23.8291 7.07635 23.8291C7.07635 23.8291 7.07635 23.8291 7.07635 23.8291C7.07635 23.8291 7.07635 23.8291 7.07635 23.8291C7.07635 23.8291 7.07635 23.8291 7.07635 23.8291C7.07635 23.8291 7.07635 23.8291 7.07635 23.8291C7.07635 23.8291 7.07635 23.8291 7.07635 23.8291C7.07635 23.8291 7.07635 23.8291 7.07635 23.8291C7.07635 23.8291 7.07635 23.8291 7.07635 23.8291C7.07635 23.8291 7.07635 23.8291 7.07635 23.8291C7.07635 23.8291 7.07635 23.8291 7.07635 23.8291C7.07635 23.8291 7.07635 23.8291 7.07635 23.8291C7.07635 23.8291 7.07635 23.8291 7.07635 23.8291C7.07635 23.8291 7.07635 23.8291 7.07635 23.8291C7.07635 23.8291 7.07635 23.8291 7.07635 23.8291C7.07635 23.8291 7.07635 23.8291 7.07635 23.8291C7.07635 23.8291 7.07635 23.8291 7.07635 23.8291C7.07635 23.8291 7.07635 23.8291 7.07635 23.8291C7.07635 23.8291 7.07635 23.8291 7.07635 23.8291C7.07635 23.8291 7.07635 23.8291 7.07635 23.8291C7.07635 23.8291 7.07635 23.8291 7.07635 23.8291C7.07635 23.8291 7.07635 23.8291 7.07635 23.8291C7.07635 23.8291 7.07635 23.8291 7.07635 23.8291C7.07635 23.8291 7.07635 23.8291 7.07635 23.8291C7.07635 23.8291 7.07635 23.8291 7.07635 23.8291C7.07635 23.8291 7.07635 23.8291 7.07635 23.8291C7.07635 23.8291 7.07635 23.8291 7.07635 23.8291C7.07635 23.8291 7.07635 23.8291 7.07635 23.8291C7.07635 23.8291 7.07635 23.8291 7.07635 23.8291C7.07635 23.8291 7.07635 23.8291 7.07635 23.8291C7.07635 23.8291 7.07635 23.8291 7.07635 23.8291C7.07635 23.8291 7.07635 23.8291 7.07635 23.8291C7.07635 23.8291 7.07635 23.8291 7.07635 23.8291C7.07635 23.8291 7.07635 23.8291 7.07635 23.8291C7.07635 23.8291 7.07635 23.8291 7.07635 23.8291C7.07635 23.8291 7.07635 23.8291 7.07635 23.8291C7.07635 23.8291 7.07635 23.8291 7.07635 23.8291C7.07635 23.8291 7.07635 23.8291 7.07635 23.8291C7.07635 23.8291 7.07635 23.8291 7.07635 23.8291C7.07635 23.8291 7.07635 23.8291 7.07635 23.8291C7.07635 23.8291 7.07635 23.8291 7.07635 23.8291C7.07635 23.8291 7.07635 23.8291 7.07635 23.8291C7.07635 23.8291 7.07635 23.8291 7.07635 23.8291C7.07635 23.8291 7.07635 23.8291 7.07635 23.8291C7.07635 23.8291 7.07635 23.8291 7.07635 23.8291C7.07635 23.8291 7.07635 23.8291 7.07635 23.8291C7.07635 23.8291 7.07635 23.8291 7.07635 23.8291C7.07635 23.8291 7.07635 23.8291 7.07635 23.8291C7.07635 23.8291 7.07635 23.8291 7.07635 23.8291C7.07635 23.8291 7.07635 23.8291 7.07635 23.8291C7.07635 23.8291 7.07635 23.8291 7.07635 23.8291C7.07635 23.8291 7.07635 23.8291 7.07635 23.8291C7.07635 23.8291 7.07635 23.8291 7.07635 23.8291C7.07635 23.8291 7.07635 23.8291 7.07635 23.8291C7.07635 23.8291 7.07635 23.8291 7.07635 23.8291C7.07635 23.8291 7.07635 23.8291 7.07635 23.8291C7.07635 23.8291 7.07635 23.8291 7.07635 23.8291C7.07635 23.8291 7.07635 23.8291 7.07635 23.8291C7.07635 23.8291 7.07635 23.8291 7.07635 23.8291C7.07635 23.8291 7.07635 23.8291 7.07635 23.8291C7.07635 23.8291 7.07635 23.8291 7.07635 23.8291C7.07635 23.8291 7.07635 23.8291 7.07635 23.8291C7.07635 23.8291 7.07635 23.8291 7.07635 23.8291C7.07635 23.8291 7.07635 23.8291 7.07635 23.8291C7.07635 23.8291 7.07635 23.8291 7.07635 23.8291C7.07635 23.8291 7.07635 23.8291 7.07635 23.8291C7.07635 23.8291 7.07635 23.8291 7.07635 23.8291C7.07635 23.8291 7.07635 23.8291 7.07635 23.8291C7.07635 23.8291 7.07635 23.8291 7.07635 23.8291C7.07635 23.8291 7.07635 23.8291 7.07635 23.8291C7.07635 23.8291 7.07635 23.8291 7.07635 23.8291C7.07635 23.8291 7.07635 23.8291 7.07635 23.8291C7.07635 23.8291 7.07635 23.8291 7.07635 23.8291C7.07635 23.8291 7.07635 23.8291 7.07635 23.8291C7.07635 23.8291 7.07635 23.8291 7.07635 23.8291C7.07635 23.8291 7.07635 23.8291 7.07635 23.8291C7.07635 23.8291 7.07635 23.8291 7.07635 23.8291C7.07635 23.8291 7.07635 23.8291 7.07635 23.8291C7.07635 23.8291 7.07635 23.8291 7.07635 23.8291C7.07635 23.8291 7.07635 23.8291 7.07635 23.8291C7.07635 23.8291 7.07635 23.8291 7.07635 23.8291C7.07635 23.8291 7.07635 23.8291 7.07635 23.8291C7.07635 23.8291 7.07635 23.8291 7.07635 23.8291C7.07635 23.8291 7.07635 23.8291 7.07635 23.8291C7.07635 23.8291 7.07635 23.8291 7.07635 23.8291C7.07635 23.8291 7.07635 23.8291 7.07635 23.8291C7.07635 23.8291 7.07635 23.8291 7.07635 23.8291C7.07635 23.8291 7.07635 23.8291 7.07635 23.8291C7.07635 23.8291 7.07635 23.8291 7.07635 23.8291C7.07635 23.8291 7.07635 23.8291 7.07635 23.8291C7.07635 23.8291 7.07635 23.8291 7.07635 23.8291C7.07635 23.8291 7.07635 23.8291 7.07635 23.8291C7.07635 23.8291 7.07635 23.8291 7.07635 23.8291C7.07635 23.8291 7.07635 23.8291 7.07635 23.8291C7.07635 23.8291 7.07635 23.8291 7.07635 23.8291C7.07635 23.8291 7.07635 23.8291 7.07635 23.8291C7.07635 23.8291 7.07635 23.8291 7.07635 23.8291C7.07635 23.8291 7.07635 23.8291 7.07635 23.8291C7.07635 23.8291 7.07635 23.8291 7.07635 23.8291C7.07635 23.8291 7.07635 23.8291 7.07635 23.8291C7.07635 23.8291 7.07635 23.8291 7.07635 23.8291C7.07635 23.8291 7.07635 23.8291 7.07635 23.8291C7.07635 23.8291 7.07635 23.8291 7.07635 23.8291C7.07635 23.8291 7.07635 23.8291 7.07635 23.8291C7.07635 23.8291 7.07635 23.8291 7.07635 23.8291C7.07635 23.8291 7.07635 23.8291 7.07635 23.8291C7.07635 23.8291 7.07635 23.8291 7.07635 23.8291C7.07635 23.8291 7.07635 23.8291 7.07635 23.8291C7.07635 23.8291 7.07635 23.8291 7.07635 23.8291C7.07635 23.8291 7.07635 23.8291 7.07635 23.8291C7.07635 23.8291 7.07635 23.8291 7.07635 23.8291C7.07635 23.8291 7.07635 23.8291 7.07635 23.8291C7.07635 23.8291 7.07635 23.8291 7.07635 23.8291C7.07635 23.8291 7.07635 23.8291 7.07635 23.8291C7.07635 23.8291 7.07635 23.8291 7.07635 23.8291C7.07635 23.8291 7.07635 23.8291 7.07635 23.8291C7.07635 23.8291 7.07635 23.8291 7.07635 23.8291C7.07635 23.8291 7.07635 23.8291 7.07635 23.8291C7.07635 23.8291 7.07635 23.8291 7.07635 23.8291C7.07635 23.8291 7.07635 23.8291 7.07635 23.8291C7.07635 23.8291 7.07635 23.8291 7.07635 23.8291C7.07635 23.8291 7.07635 23.8291 7.07635 23.8291C7.07635 23.8291 7.07635 23.8291 7.07635 23.8291C7.07635 23.8291 7.07635 23.8291 7.07635 23.8291C7.07635 23.8291 7.07635 23.8291 7.07634 23.8291C7.07634 23.8291 7.07634 23.8291 7.07634 23.8291C7.07634 23.8291 7.07634 23.8291 7.07634 23.8291C7.07634 23.8291 7.07634 23.8291 7.07634 23.8291C7.07634 23.8291 7.07634 23.8291 7.07634 23.8291C7.07634 23.8291 7.07634 23.8291 7.07634 23.8291C7.07634 23.8291 7.07634 23.8291 7.07634 23.8291C7.07634 23.8291 7.07634 23.8291 7.07634 23.8291C7.07634 23.8291 7.07634 23.8291 7.07634 23.8291C7.07634 23.8291 7.07634 23.8291 7.07634 23.8291C7.07634 23.8291 7.07634 23.8291 7.07634 23.8291C7.07634 23.8291 7.07634 23.8291 7.07634 23.8291C7.07634 23.8291 7.07634 23.8291 7.07634 23.8291C7.07634 23.8291 7.07634 23.8291 7.07634 23.8291C7.07634 23.8291 7.07634 23.8291 7.07634 23.8291C7.07634 23.8291 7.07634 23.8291 7.07634 23.8291C7.07634 23.8291 7.07634 23.8291 7.07634 23.8291C7.07634 23.8291 7.07634 23.8291 7.07634 23.8291C7.07634 23.8291 7.07634 23.8291 7.07634 23.8291C7.07634 23.8291 7.07634 23.8291 7.07634 23.8291C7.07634 23.8291 7.07634 23.8291 7.07634 23.8291C7.07634 23.8291 7.07634 23.8291 7.07634 23.8291C7.07634 23.8291 7.07634 23.8291 7.07634 23.8291C7.07634 23.8291 7.07634 23.8291 7.07634 23.8291C7.07634 23.8291 7.07634 23.8291 7.07634 23.8291C7.07634 23.8291 7.07634 23.8291 7.07634 23.8291C7.07634 23.8291 7.07634 23.8291 7.07634 23.8291C7.07634 23.8291 7.07634 23.8291 7.07634 23.8291C7.07634 23.8291 7.07634 23.8291 7.07634 23.8291C7.07634 23.8291 7.07634 23.8291 7.07634 23.8291C7.07634 23.8291 7.07634 23.8291 7.07634 23.8291C7.07634 23.8291 7.07634 23.8291 7.07634 23.8291C7.07634 23.8291 7.07634 23.8291 7.07634 23.8291C7.07634 23.8291 7.07634 23.8291 7.07634 23.8291C7.07634 23.8291 7.07634 23.8291 7.07634 23.8291C7.07634 23.8291 7.07634 23.8291 7.07634 23.8291C7.07634 23.8291 7.07634 23.8291 7.07634 23.8291C7.07634 23.8291 7.07634 23.8291 7.07634 23.8291C7.07634 23.8291 7.07634 23.8291 7.07634 23.8291C7.07634 23.8291 7.07634 23.8291 7.07634 23.8291C7.07634 23.8291 7.07634 23.8291 7.07634 23.8291C7.07634 23.8291 7.07634 23.8291 7.07634 23.8291C7.07634 23.8291 7.07634 23.8291 7.07634 23.8291C7.07634 23.8291 7.07634 23.8291 7.07634 23.8291C7.07634 23.8291 7.07634 23.8291 7.07634 23.8291C7.07634 23.8291 7.07634 23.8291 7.07634 23.8291C7.07634 23.8291 7.07634 23.8291 7.07634 23.8291C7.07634 23.8291 7.07634 23.8291 7.07634 23.8291C7.07634 23.8291 7.07634 23.8291 7.07634 23.8291C7.07634 23.8291 7.07634 23.8291 7.07634 23.8291C7.07634 23.8291 7.07634 23.8291 7.07634 23.8291C7.07634 23.8291 7.07634 23.8291 7.07634 23.8291C7.07634 23.8291 7.07634 23.8291 7.07634 23.8291C7.07634 23.8291 7.07634 23.8291 7.07634 23.8291C7.07634 23.8291 7.07634 23.8291 7.07634 23.8291C7.07634 23.8291 7.07634 23.8291 7.07634 23.8291C7.07634 23.8291 7.07634 23.8291 7.07634 23.8291C7.07634 23.8291 7.07634 23.8291 7.07634 23.8291C7.07634 23.8291 7.07634 23.8291 7.07634 23.8291C7.07634 23.8291 7.07634 23.8291 7.07634 23.8291C7.07634 23.8291 7.07634 23.8291 7.07634 23.8291C7.07634 23.8291 7.07634 23.8291 7.07634 23.8291C7.07634 23.8291 7.07634 23.8291 7.07634 23.8291C7.07634 23.8291 7.07634 23.8291 7.07634 23.8291C7.07634 23.8291 7.07634 23.8291 7.07634 23.8291C7.07634 23.8291 7.07634 23.8291 7.07634 23.8291C7.07634 23.8291 7.07634 23.8291 7.07634 23.8291C7.07634 23.8291 7.07634 23.8291 7.07634 23.8291C7.07634 23.8291 7.07634 23.8291 7.07634 23.8291C7.07634 23.8291 7.07634 23.8291 7.07634 23.8291C7.07634 23.8291 7.07634 23.8291 7.07634 23.8291C7.07634 23.8291 7.07634 23.8291 7.07634 23.8291C7.07634 23.8291 7.07634 23.8291 7.07634 23.8291C7.07634 23.8291 7.07634 23.8291 7.07634 23.8291C7.07634 23.8291 7.07634 23.8291 7.07634 23.8291C7.07634 23.8291 7.07634 23.8291 7.07634 23.8291C7.07634 23.8291 7.07634 23.8291 7.07634 23.8291C7.07634 23.8291 7.07634 23.8291 7.07634 23.8291C7.07634 23.8291 7.07634 23.8291 7.07634 23.8291C7.07634 23.8291 7.07634 23.8291 7.07634 23.8291C7.07634 23.8291 7.07634 23.8291 7.07634 23.8291C7.07634 23.8291 7.07634 23.8291 7.07634 23.8291C7.07634 23.8291 7.07634 23.8291 7.07634 23.8291C7.07634 23.8291 7.07634 23.8291 7.07634 23.8291C7.07634 23.8291 7.07634 23.8291 7.07634 23.8291C7.07634 23.8291 7.07634 23.8291 7.07634 23.8291C7.07634 23.8291 7.07634 23.8291 7.07634 23.8291C7.07634 23.8291 7.07634 23.8291 7.07634 23.8291C7.07634 23.8291 7.07634 23.8291 7.07634 23.8291C7.07634 23.8291 7.07634 23.8291 7.07634 23.8291C7.07634 23.8291 7.07634 23.8291 7.07634 23.8291C7.07634 23.8291 7.07634 23.8291 7.07634 23.8291C7.07634 23.8291 7.07634 23.8291 7.07634 23.8291C7.07634 23.8291 7.07634 23.8291 7.07634 23.8291C7.07634 23.8291 7.07634 23.8291 7.07634 23.8291C7.07634 23.8291 7.07634 23.8291 7.07634 23.8291C7.07634 23.8291 7.07634 23.8291 7.07634 23.8291C7.07634 23.8291 7.07634 23.8291 7.07634 23.8291C7.07634 23.8291 7.07634 23.8291 7.07634 23.8291C7.07634 23.8291 7.07634 23.8291 7.07634 23.8291C7.07634 23.8291 7.07634 23.8291 7.07634 23.8291C7.07634 23.8291 7.07634 23.8291 7.07634 23.8291C7.07634 23.8291 7.07634 23.8291 7.07634 23.8291C7.07634 23.8291 7.07634 23.8291 7.07634 23.8291C7.07634 23.8291 7.07634 23.8291 7.07634 23.8291C7.07634 23.8291 7.07634 23.8291 7.07634 23.8291C7.07634 23.8291 7.07634 23.8291 7.07634 23.8291C7.07634 23.8291 7.07634 23.8291 7.07634 23.8291C7.07634 23.8291 7.07634 23.8291 7.07634 23.8291C7.07634 23.8291 7.07634 23.8291 7.07634 23.8291C7.07634 23.8291 7.07634 23.8291 7.07634 23.8291C7.07634 23.8291 7.07634 23.8291 7.07634 23.8291C7.07634 23.8291 7.07634 23.8291 7.07634 23.8291C7.07634 23.8291 7.07634 23.8291 7.07634 23.8291C7.07634 23.8291 7.07634 23.8291 7.07634 23.8291C7.07634 23.8291 7.07634 23.8291 7.07634 23.8291C7.07634 23.8291 7.07634 23.8291 7.07634 23.8291C7.07634 23.8291 7.07634 23.8291 7.07634 23.8291C7.07634 23.8291 7.07634 23.8291 7.07634 23.8291C7.07634 23.8291 7.07634 23.8291 7.07634 23.8291C7.07634 23.8291 7.07634 23.8291 7.07634 23.8291C7.07634 23.8291 7.07634 23.8291 7.07634 23.8291C7.07634 23.8291 7.07634 23.8291 7.07634 23.8291C7.07634 23.8291 7.07634 23.8291 7.07634 23.8291C7.07634 23.8291 7.07634 23.8291 7.07634 23.8291C7.07634 23.8291 7.07634 23.8291 7.07634 23.8291C7.07634 23.8291 7.07634 23.8291 7.07634 23.8291C7.07634 23.8291 7.07634 23.8291 7.07634 23.8291C7.07634 23.8291 7.07634 23.8291 7.07634 23.8291C7.07634 23.8291 7.07634 23.8291 7.07634 23.8291C7.07634 23.8291 7.07634 23.8291 7.07634 23.8291C7.07634 23.8291 7.07634 23.8291 7.07634 23.8291C7.07634 23.8291 7.07634 23.8291 7.07634 23.8291C7.07634 23.8291 7.07634 23.8291 7.07634 23.8291C7.07634 23.8291 7.07634 23.8291 7.07634 23.8291C7.07634 23.8291 7.07634 23.8291 7.07634 23.8291C7.07634 23.8291 7.07634 23.8291 7.07634 23.8291C7.07634 23.8291 7.07634 23.8291 7.07634 23.8291C7.07634 23.8291 7.07634 23.8291 7.07634 23.8291C7.07634 23.8291 7.07634 23.8291 7.07634 23.8291C7.07634 23.8291 7.07634 23.8291 7.07634 23.8291C7.07634 23.8291 7.07634 23.8291 7.07634 23.8291C7.07634 23.8291 7.07634 23.8291 7.07634 23.8291C7.07634 23.8291 7.07634 23.8291 7.07634 23.8291C7.07634 23.8291 7.07634 23.8291 7.07634 23.8291C7.07634 23.8291 7.07634 23.8291 7.07634 23.8291C7.07634 23.8291 7.07634 23.8291 7.07634 23.8291C7.07634 23.8291 7.07634 23.8291 7.07634 23.8291C7.07634 23.8291 7.07634 23.8291 7.07634 23.8291C7.07634 23.8291 7.07634 23.8291 7.07634 23.8291C7.07634 23.8291 7.07634 23.8291 7.07634 23.8291C7.07634 23.8291 7.07634 23.8291 7.07634 23.8291C7.07634 23.8291 7.07634 23.8291 7.07634 23.8291C7.07634 23.8291 7.07634 23.8291 7.07634 23.8291C7.07634 23.8291 7.07634 23.8291 7.07634 23.8291C7.07634 23.8291 7.07634 23.8291 7.07634 23.8291C7.07634 23.8291 7.07634 23.8291 7.07634 23.8291C7.07634 23.8291 7.07634 23.8291 7.07634 23.8291C7.07634 23.8291 7.07634 23.8291 7.07634 23.8291C7.07634 23.8291 7.07634 23.8291 7.07634 23.8291C7.07634 23.8291 7.07634 23.8291 7.07634 23.8291C7.07634 23.8291 7.07634 23.8291 7.07634 23.8291C7.07634 23.8291 7.07634 23.8291 7.07634 23.8291C7.07634 23.8291 7.07634 23.8291 7.07634 23.8291C7.07634 23.8291 7.07634 23.8291 7.07634 23.8291C7.07634 23.8291 7.07634 23.8291 7.07634 23.8291C7.07634 23.8291 7.07634 23.8291 7.07634 23.8291C7.07634 23.8291 7.07634 23.8291 7.07634 23.8291C7.07634 23.8291 7.07634 23.8291 7.07634 23.8291C7.07634 23.8291 7.07634 23.8291 7.07634 23.8291C7.07634 23.8291 7.07634 23.8291 7.07634 23.8291C7.07634 23.8291 7.07634 23.8291 7.07634 23.8291C7.07634 23.8291 7.07634 23.8291 7.07634 23.8291C7.07634 23.8291 7.07634 23.8291 7.07634 23.8291C7.07634 23.8291 7.07634 23.8291 7.07634 23.8291C7.07634 23.8291 7.07634 23.8291 7.07634 23.8291C7.07634 23.8291 7.07634 23.8291 7.07634 23.8291C7.07634 23.8291 7.07634 23.8291 7.07634 23.8291C7.07634 23.8291 7.07634 23.8291 7.07634 23.8291C7.07634 23.8291 7.07634 23.8291 7.07634 23.8291C7.07634 23.8291 7.07634 23.8291 7.07634 23.8291C7.07634 23.8291 7.07634 23.8291 7.07634 23.8291C7.07634 23.8291 7.07634 23.8291 7.07634 23.8291C7.07634 23.8291 7.07634 23.8291 7.07634 23.8291C7.07634 23.8291 7.07634 23.8291 7.07634 23.8291C7.07634 23.8291 7.07634 23.8291 7.07634 23.8291C7.07634 23.8291 7.07634 23.8291 7.07634 23.8291C7.07634 23.8291 7.07634 23.8291 7.07634 23.8291C7.07634 23.8291 7.07634 23.8291 7.07634 23.8291C7.07634 23.8291 7.07634 23.8291 7.07634 23.8291C7.07634 23.8291 7.07634 23.8291 7.07634 23.8291C7.07634 23.8291 7.07634 23.8291 7.07634 23.8291C7.07634 23.8291 7.07634 23.8291 7.07634 23.8291C7.07634 23.8291 7.07634 23.8291 7.07634 23.8291C7.07634 23.8291 7.07634 23.8291 7.07634 23.8291C7.07634 23.8291 7.07634 23.8291 7.07634 23.8291C7.07634 23.8291 7.07634 23.8291 7.07634 23.8291C7.07634 23.8291 7.07634 23.8291 7.07634 23.8291C7.07634 23.8291 7.07634 23.8291 7.07634 23.8291C7.07634 23.8291 7.07634 23.8291 7.07634 23.8291C7.07634 23.8291 7.07634 23.8291 7.07634 23.8291C7.07634 23.8291 7.07634 23.8291 7.07634 23.8291C7.07634 23.8291 7.07634 23.8291 7.07634 23.8291C7.07634 23.8291 7.07634 23.8291 7.07634 23.8291C7.07634 23.8291 7.07634 23.8291 7.07634 23.8291C7.07634 23.8291 7.07634 23.8291 7.07634 23.8291C7.07634 23.8291 7.07634 23.8291 7.07634 23.8291C7.07634 23.8291 7.07634 23.8291 7.07634 23.8291C7.07634 23.8291 7.07634 23.8291 7.07634 23.8291C7.07634 23.8291 7.07634 23.8291 7.07634 23.8291C7.07634 23.8291 7.07634 23.8291 7.07634 23.8291C7.07634 23.8291 7.07634 23.8291 7.07634 23.8291C7.07634 23.8291 7.07634 23.8291 7.07634 23.8291C7.07634 23.8291 7.07634 23.8291 7.07634 23.8291C7.07634 23.8291 7.07634 23.8291 7.07634 23.8291C7.07634 23.8291 7.07634 23.8291 7.07634 23.8291C7.07634 23.8291 7.07634 23.8291 7.07634 23.8291C7.07634 23.8291 7.07634 23.8291 7.07634 23.8291C7.07634 23.8291 7.07634 23.8291 7.07634 23.8291C7.07634 23.8291 7.07634 23.8291 7.07634 23.8291C7.07634 23.8291 7.07634 23.8291 7.07634 23.8291C7.07634 23.8291 7.07634 23.8291 7.07634 23.8291C7.07634 23.8291 7.07634 23.8291 7.07634 23.8291C7.07634 23.8291 7.07634 23.8291 7.07634 23.8291C7.07634 23.8291 7.07634 23.8291 7.07634 23.8291C7.07634 23.8291 7.07634 23.8291 7.07634 23.8291C7.07634 23.8291 7.07634 23.8291 7.07634 23.8291C7.07634 23.8291 7.07634 23.8291 7.07634 23.8291C7.07634 23.8291 7.07634 23.8291 7.07634 23.8291C7.07634 23.8291 7.07634 23.8291 7.07634 23.8291C7.07634 23.8291 7.07634 23.8291 7.07634 23.8291C7.07634 23.8291 7.07634 23.8291 7.07634 23.8291C7.07634 23.8291 7.07634 23.8291 7.07634 23.8291C7.07634 23.8291 7.07634 23.8291 7.07634 23.8291C7.07634 23.8291 7.07634 23.8291 7.07634 23.8291C7.07634 23.8291 7.07634 23.8291 7.07634 23.8291C7.07634 23.8291 7.07634 23.8291 7.07634 23.8291C7.07634 23.8291 7.07634 23.8291 7.07634 23.8291C7.07634 23.8291 7.07634 23.8291 7.07634 23.8291C7.07634 23.8291 7.07634 23.8291 7.07634 23.8291C7.07634 23.8291 7.07634 23.8291 7.07634 23.8291C7.07634 23.8291 7.07634 23.8291 7.07634 23.8291C7.07634 23.8291 7.07634 23.8291 7.07634 23.8291C7.07634 23.8291 7.07634 23.8291 7.07634 23.8291C7.07634 23.8291 7.07634 23.8291 7.07634 23.8291C7.07634 23.8291 7.07634 23.8291 7.07633 23.8291C7.07633 23.8291 7.07633 23.8291 7.07633 23.8291C7.07633 23.8291 7.07633 23.8291 7.07633 23.8291C7.07633 23.8291 7.07633 23.8291 7.07633 23.8291C7.07633 23.8291 7.07633 23.8291 7.07633 23.8291C7.07633 23.8291 7.07633 23.8291 7.07633 23.8291C7.07633 23.8291 7.07633 23.8291 7.07633 23.8291C7.07633 23.8291 7.07633 23.8291 7.07633 23.8291C7.07633 23.8291 7.07633 23.8291 7.07633 23.8291C7.07633 23.8291 7.07633 23.8291 7.07633 23.8291C7.07633 23.8291 7.07633 23.8291 7.07633 23.8291C7.07633 23.8291 7.07633 23.8291 7.07633 23.8291C7.07633 23.8291 7.07633 23.8291 7.07633 23.8291C7.07633 23.8291 7.07633 23.8291 7.07633 23.8291C7.07633 23.8291 7.07633 23.8291 7.07633 23.8291C7.07633 23.8291 7.07633 23.8291 7.07633 23.8291C7.07633 23.8291 7.07633 23.8291 7.07633 23.8291C7.07633 23.8291 7.07633 23.8291 7.07633 23.8291C7.07633 23.8291 7.07633 23.8291 7.07633 23.8291C7.07633 23.8291 7.07633 23.8291 7.07633 23.8291C7.07633 23.8291 7.07633 23.8291 7.07633 23.8291C7.07633 23.8291 7.07633 23.8291 7.07633 23.8291C7.07633 23.8291 7.07633 23.8291 7.07633 23.8291C7.07633 23.8291 7.07633 23.8291 7.07633 23.8291C7.07633 23.8291 7.07633 23.8291 7.07633 23.8291C7.07633 23.8291 7.07633 23.8291 7.07633 23.8291C7.07633 23.8291 7.07633 23.8291 7.07633 23.8291C7.07633 23.8291 7.07633 23.8291 7.07633 23.8291C7.07633 23.8291 7.07633 23.8291 7.07633 23.8291C7.07633 23.8291 7.07633 23.8291 7.07633 23.8291C7.07633 23.8291 7.07633 23.8291 7.07633 23.8291V24.8291C7.07633 24.8291 7.07633 24.8291 7.07633 24.8291C7.07633 24.8291 7.07633 24.8291 7.07633 24.8291C7.07633 24.8291 7.07633 24.8291 7.07633 24.8291C7.07633 24.8291 7.07633 24.8291 7.07633 24.8291C7.07633 24.8291 7.07633 24.8291 7.07633 24.8291C7.07633 24.8291 7.07633 24.8291 7.07633 24.8291C7.07633 24.8291 7.07633 24.8291 7.07633 24.8291C7.07633 24.8291 7.07633 24.8291 7.07633 24.8291C7.07633 24.8291 7.07633 24.8291 7.07633 24.8291C7.07633 24.8291 7.07633 24.8291 7.07633 24.8291C7.07633 24.8291 7.07633 24.8291 7.07633 24.8291C7.07633 24.8291 7.07633 24.8291 7.07633 24.8291C7.07633 24.8291 7.07633 24.8291 7.07633 24.8291C7.07633 24.8291 7.07633 24.8291 7.07633 24.8291C7.07633 24.8291 7.07633 24.8291 7.07633 24.8291C7.07633 24.8291 7.07633 24.8291 7.07633 24.8291C7.07633 24.8291 7.07633 24.8291 7.07633 24.8291C7.07633 24.8291 7.07633 24.8291 7.07633 24.8291C7.07633 24.8291 7.07633 24.8291 7.07633 24.8291C7.07633 24.8291 7.07633 24.8291 7.07633 24.8291C7.07633 24.8291 7.07633 24.8291 7.07633 24.8291C7.07633 24.8291 7.07633 24.8291 7.07633 24.8291C7.07633 24.8291 7.07633 24.8291 7.07633 24.8291C7.07633 24.8291 7.07633 24.8291 7.07633 24.8291C7.07633 24.8291 7.07633 24.8291 7.07633 24.8291C7.07633 24.8291 7.07633 24.8291 7.07633 24.8291C7.07633 24.8291 7.07633 24.8291 7.07633 24.8291C7.07633 24.8291 7.07633 24.8291 7.07633 24.8291C7.07633 24.8291 7.07633 24.8291 7.07633 24.8291C7.07633 24.8291 7.07633 24.8291 7.07633 24.8291C7.07634 24.8291 7.07634 24.8291 7.07634 24.8291C7.07634 24.8291 7.07634 24.8291 7.07634 24.8291C7.07634 24.8291 7.07634 24.8291 7.07634 24.8291C7.07634 24.8291 7.07634 24.8291 7.07634 24.8291C7.07634 24.8291 7.07634 24.8291 7.07634 24.8291C7.07634 24.8291 7.07634 24.8291 7.07634 24.8291C7.07634 24.8291 7.07634 24.8291 7.07634 24.8291C7.07634 24.8291 7.07634 24.8291 7.07634 24.8291C7.07634 24.8291 7.07634 24.8291 7.07634 24.8291C7.07634 24.8291 7.07634 24.8291 7.07634 24.8291C7.07634 24.8291 7.07634 24.8291 7.07634 24.8291C7.07634 24.8291 7.07634 24.8291 7.07634 24.8291C7.07634 24.8291 7.07634 24.8291 7.07634 24.8291C7.07634 24.8291 7.07634 24.8291 7.07634 24.8291C7.07634 24.8291 7.07634 24.8291 7.07634 24.8291C7.07634 24.8291 7.07634 24.8291 7.07634 24.8291C7.07634 24.8291 7.07634 24.8291 7.07634 24.8291C7.07634 24.8291 7.07634 24.8291 7.07634 24.8291C7.07634 24.8291 7.07634 24.8291 7.07634 24.8291C7.07634 24.8291 7.07634 24.8291 7.07634 24.8291C7.07634 24.8291 7.07634 24.8291 7.07634 24.8291C7.07634 24.8291 7.07634 24.8291 7.07634 24.8291C7.07634 24.8291 7.07634 24.8291 7.07634 24.8291C7.07634 24.8291 7.07634 24.8291 7.07634 24.8291C7.07634 24.8291 7.07634 24.8291 7.07634 24.8291C7.07634 24.8291 7.07634 24.8291 7.07634 24.8291C7.07634 24.8291 7.07634 24.8291 7.07634 24.8291C7.07634 24.8291 7.07634 24.8291 7.07634 24.8291C7.07634 24.8291 7.07634 24.8291 7.07634 24.8291C7.07634 24.8291 7.07634 24.8291 7.07634 24.8291C7.07634 24.8291 7.07634 24.8291 7.07634 24.8291C7.07634 24.8291 7.07634 24.8291 7.07634 24.8291C7.07634 24.8291 7.07634 24.8291 7.07634 24.8291C7.07634 24.8291 7.07634 24.8291 7.07634 24.8291C7.07634 24.8291 7.07634 24.8291 7.07634 24.8291C7.07634 24.8291 7.07634 24.8291 7.07634 24.8291C7.07634 24.8291 7.07634 24.8291 7.07634 24.8291C7.07634 24.8291 7.07634 24.8291 7.07634 24.8291C7.07634 24.8291 7.07634 24.8291 7.07634 24.8291C7.07634 24.8291 7.07634 24.8291 7.07634 24.8291C7.07634 24.8291 7.07634 24.8291 7.07634 24.8291C7.07634 24.8291 7.07634 24.8291 7.07634 24.8291C7.07634 24.8291 7.07634 24.8291 7.07634 24.8291C7.07634 24.8291 7.07634 24.8291 7.07634 24.8291C7.07634 24.8291 7.07634 24.8291 7.07634 24.8291C7.07634 24.8291 7.07634 24.8291 7.07634 24.8291C7.07634 24.8291 7.07634 24.8291 7.07634 24.8291C7.07634 24.8291 7.07634 24.8291 7.07634 24.8291C7.07634 24.8291 7.07634 24.8291 7.07634 24.8291C7.07634 24.8291 7.07634 24.8291 7.07634 24.8291C7.07634 24.8291 7.07634 24.8291 7.07634 24.8291C7.07634 24.8291 7.07634 24.8291 7.07634 24.8291C7.07634 24.8291 7.07634 24.8291 7.07634 24.8291C7.07634 24.8291 7.07634 24.8291 7.07634 24.8291C7.07634 24.8291 7.07634 24.8291 7.07634 24.8291C7.07634 24.8291 7.07634 24.8291 7.07634 24.8291C7.07634 24.8291 7.07634 24.8291 7.07634 24.8291C7.07634 24.8291 7.07634 24.8291 7.07634 24.8291C7.07634 24.8291 7.07634 24.8291 7.07634 24.8291C7.07634 24.8291 7.07634 24.8291 7.07634 24.8291C7.07634 24.8291 7.07634 24.8291 7.07634 24.8291C7.07634 24.8291 7.07634 24.8291 7.07634 24.8291C7.07634 24.8291 7.07634 24.8291 7.07634 24.8291C7.07634 24.8291 7.07634 24.8291 7.07634 24.8291C7.07634 24.8291 7.07634 24.8291 7.07634 24.8291C7.07634 24.8291 7.07634 24.8291 7.07634 24.8291C7.07634 24.8291 7.07634 24.8291 7.07634 24.8291C7.07634 24.8291 7.07634 24.8291 7.07634 24.8291C7.07634 24.8291 7.07634 24.8291 7.07634 24.8291C7.07634 24.8291 7.07634 24.8291 7.07634 24.8291C7.07634 24.8291 7.07634 24.8291 7.07634 24.8291C7.07634 24.8291 7.07634 24.8291 7.07634 24.8291C7.07634 24.8291 7.07634 24.8291 7.07634 24.8291C7.07634 24.8291 7.07634 24.8291 7.07634 24.8291C7.07634 24.8291 7.07634 24.8291 7.07634 24.8291C7.07634 24.8291 7.07634 24.8291 7.07634 24.8291C7.07634 24.8291 7.07634 24.8291 7.07634 24.8291C7.07634 24.8291 7.07634 24.8291 7.07634 24.8291C7.07634 24.8291 7.07634 24.8291 7.07634 24.8291C7.07634 24.8291 7.07634 24.8291 7.07634 24.8291C7.07634 24.8291 7.07634 24.8291 7.07634 24.8291C7.07634 24.8291 7.07634 24.8291 7.07634 24.8291C7.07634 24.8291 7.07634 24.8291 7.07634 24.8291C7.07634 24.8291 7.07634 24.8291 7.07634 24.8291C7.07634 24.8291 7.07634 24.8291 7.07634 24.8291C7.07634 24.8291 7.07634 24.8291 7.07634 24.8291C7.07634 24.8291 7.07634 24.8291 7.07634 24.8291C7.07634 24.8291 7.07634 24.8291 7.07634 24.8291C7.07634 24.8291 7.07634 24.8291 7.07634 24.8291C7.07634 24.8291 7.07634 24.8291 7.07634 24.8291C7.07634 24.8291 7.07634 24.8291 7.07634 24.8291C7.07634 24.8291 7.07634 24.8291 7.07634 24.8291C7.07634 24.8291 7.07634 24.8291 7.07634 24.8291C7.07634 24.8291 7.07634 24.8291 7.07634 24.8291C7.07634 24.8291 7.07634 24.8291 7.07634 24.8291C7.07634 24.8291 7.07634 24.8291 7.07634 24.8291C7.07634 24.8291 7.07634 24.8291 7.07634 24.8291C7.07634 24.8291 7.07634 24.8291 7.07634 24.8291C7.07634 24.8291 7.07634 24.8291 7.07634 24.8291C7.07634 24.8291 7.07634 24.8291 7.07634 24.8291C7.07634 24.8291 7.07634 24.8291 7.07634 24.8291C7.07634 24.8291 7.07634 24.8291 7.07634 24.8291C7.07634 24.8291 7.07634 24.8291 7.07634 24.8291C7.07634 24.8291 7.07634 24.8291 7.07634 24.8291C7.07634 24.8291 7.07634 24.8291 7.07634 24.8291C7.07634 24.8291 7.07634 24.8291 7.07634 24.8291C7.07634 24.8291 7.07634 24.8291 7.07634 24.8291C7.07634 24.8291 7.07634 24.8291 7.07634 24.8291C7.07634 24.8291 7.07634 24.8291 7.07634 24.8291C7.07634 24.8291 7.07634 24.8291 7.07634 24.8291C7.07634 24.8291 7.07634 24.8291 7.07634 24.8291C7.07634 24.8291 7.07634 24.8291 7.07634 24.8291C7.07634 24.8291 7.07634 24.8291 7.07634 24.8291C7.07634 24.8291 7.07634 24.8291 7.07634 24.8291C7.07634 24.8291 7.07634 24.8291 7.07634 24.8291C7.07634 24.8291 7.07634 24.8291 7.07634 24.8291C7.07634 24.8291 7.07634 24.8291 7.07634 24.8291C7.07634 24.8291 7.07634 24.8291 7.07634 24.8291C7.07634 24.8291 7.07634 24.8291 7.07634 24.8291C7.07634 24.8291 7.07634 24.8291 7.07634 24.8291C7.07634 24.8291 7.07634 24.8291 7.07634 24.8291C7.07634 24.8291 7.07634 24.8291 7.07634 24.8291C7.07634 24.8291 7.07634 24.8291 7.07634 24.8291C7.07634 24.8291 7.07634 24.8291 7.07634 24.8291C7.07634 24.8291 7.07634 24.8291 7.07634 24.8291C7.07634 24.8291 7.07634 24.8291 7.07634 24.8291C7.07634 24.8291 7.07634 24.8291 7.07634 24.8291C7.07634 24.8291 7.07634 24.8291 7.07634 24.8291C7.07634 24.8291 7.07634 24.8291 7.07634 24.8291C7.07634 24.8291 7.07634 24.8291 7.07634 24.8291C7.07634 24.8291 7.07634 24.8291 7.07634 24.8291C7.07634 24.8291 7.07634 24.8291 7.07634 24.8291C7.07634 24.8291 7.07634 24.8291 7.07634 24.8291C7.07634 24.8291 7.07634 24.8291 7.07634 24.8291C7.07634 24.8291 7.07634 24.8291 7.07634 24.8291C7.07634 24.8291 7.07634 24.8291 7.07634 24.8291C7.07634 24.8291 7.07634 24.8291 7.07634 24.8291C7.07634 24.8291 7.07634 24.8291 7.07634 24.8291C7.07634 24.8291 7.07634 24.8291 7.07634 24.8291C7.07634 24.8291 7.07634 24.8291 7.07634 24.8291C7.07634 24.8291 7.07634 24.8291 7.07634 24.8291C7.07634 24.8291 7.07634 24.8291 7.07634 24.8291C7.07634 24.8291 7.07634 24.8291 7.07634 24.8291C7.07634 24.8291 7.07634 24.8291 7.07634 24.8291C7.07634 24.8291 7.07634 24.8291 7.07634 24.8291C7.07634 24.8291 7.07634 24.8291 7.07634 24.8291C7.07634 24.8291 7.07634 24.8291 7.07634 24.8291C7.07634 24.8291 7.07634 24.8291 7.07634 24.8291C7.07634 24.8291 7.07634 24.8291 7.07634 24.8291C7.07634 24.8291 7.07634 24.8291 7.07634 24.8291C7.07634 24.8291 7.07634 24.8291 7.07634 24.8291C7.07634 24.8291 7.07634 24.8291 7.07634 24.8291C7.07634 24.8291 7.07634 24.8291 7.07634 24.8291C7.07634 24.8291 7.07634 24.8291 7.07634 24.8291C7.07634 24.8291 7.07634 24.8291 7.07634 24.8291C7.07634 24.8291 7.07634 24.8291 7.07634 24.8291C7.07634 24.8291 7.07634 24.8291 7.07634 24.8291C7.07634 24.8291 7.07634 24.8291 7.07634 24.8291C7.07634 24.8291 7.07634 24.8291 7.07634 24.8291C7.07634 24.8291 7.07634 24.8291 7.07634 24.8291C7.07634 24.8291 7.07634 24.8291 7.07634 24.8291C7.07634 24.8291 7.07634 24.8291 7.07634 24.8291C7.07634 24.8291 7.07634 24.8291 7.07634 24.8291C7.07634 24.8291 7.07634 24.8291 7.07634 24.8291C7.07634 24.8291 7.07634 24.8291 7.07634 24.8291C7.07634 24.8291 7.07634 24.8291 7.07634 24.8291C7.07634 24.8291 7.07634 24.8291 7.07634 24.8291C7.07634 24.8291 7.07634 24.8291 7.07634 24.8291C7.07634 24.8291 7.07634 24.8291 7.07634 24.8291C7.07634 24.8291 7.07634 24.8291 7.07634 24.8291C7.07634 24.8291 7.07634 24.8291 7.07634 24.8291C7.07634 24.8291 7.07634 24.8291 7.07634 24.8291C7.07634 24.8291 7.07634 24.8291 7.07634 24.8291C7.07634 24.8291 7.07634 24.8291 7.07634 24.8291C7.07634 24.8291 7.07634 24.8291 7.07634 24.8291C7.07634 24.8291 7.07634 24.8291 7.07634 24.8291C7.07634 24.8291 7.07634 24.8291 7.07634 24.8291C7.07634 24.8291 7.07634 24.8291 7.07634 24.8291C7.07634 24.8291 7.07634 24.8291 7.07634 24.8291C7.07634 24.8291 7.07634 24.8291 7.07634 24.8291C7.07634 24.8291 7.07634 24.8291 7.07634 24.8291C7.07634 24.8291 7.07634 24.8291 7.07634 24.8291C7.07634 24.8291 7.07634 24.8291 7.07634 24.8291C7.07634 24.8291 7.07634 24.8291 7.07634 24.8291C7.07634 24.8291 7.07634 24.8291 7.07634 24.8291C7.07634 24.8291 7.07634 24.8291 7.07634 24.8291C7.07634 24.8291 7.07634 24.8291 7.07634 24.8291C7.07634 24.8291 7.07634 24.8291 7.07634 24.8291C7.07634 24.8291 7.07634 24.8291 7.07634 24.8291C7.07634 24.8291 7.07634 24.8291 7.07634 24.8291C7.07634 24.8291 7.07634 24.8291 7.07634 24.8291C7.07634 24.8291 7.07634 24.8291 7.07634 24.8291C7.07634 24.8291 7.07634 24.8291 7.07634 24.8291C7.07634 24.8291 7.07634 24.8291 7.07634 24.8291C7.07634 24.8291 7.07634 24.8291 7.07634 24.8291C7.07634 24.8291 7.07634 24.8291 7.07634 24.8291C7.07634 24.8291 7.07634 24.8291 7.07634 24.8291C7.07634 24.8291 7.07634 24.8291 7.07634 24.8291C7.07634 24.8291 7.07634 24.8291 7.07634 24.8291C7.07634 24.8291 7.07634 24.8291 7.07634 24.8291C7.07634 24.8291 7.07634 24.8291 7.07634 24.8291C7.07634 24.8291 7.07634 24.8291 7.07634 24.8291C7.07634 24.8291 7.07634 24.8291 7.07634 24.8291C7.07634 24.8291 7.07634 24.8291 7.07634 24.8291C7.07634 24.8291 7.07634 24.8291 7.07634 24.8291C7.07634 24.8291 7.07634 24.8291 7.07634 24.8291C7.07634 24.8291 7.07634 24.8291 7.07634 24.8291C7.07634 24.8291 7.07634 24.8291 7.07634 24.8291C7.07634 24.8291 7.07634 24.8291 7.07634 24.8291C7.07634 24.8291 7.07634 24.8291 7.07634 24.8291C7.07634 24.8291 7.07634 24.8291 7.07634 24.8291C7.07634 24.8291 7.07634 24.8291 7.07634 24.8291C7.07634 24.8291 7.07634 24.8291 7.07634 24.8291C7.07634 24.8291 7.07634 24.8291 7.07634 24.8291C7.07634 24.8291 7.07634 24.8291 7.07634 24.8291C7.07634 24.8291 7.07634 24.8291 7.07634 24.8291C7.07634 24.8291 7.07634 24.8291 7.07634 24.8291C7.07634 24.8291 7.07634 24.8291 7.07634 24.8291C7.07634 24.8291 7.07634 24.8291 7.07634 24.8291C7.07634 24.8291 7.07634 24.8291 7.07634 24.8291C7.07634 24.8291 7.07634 24.8291 7.07634 24.8291C7.07634 24.8291 7.07634 24.8291 7.07634 24.8291C7.07634 24.8291 7.07634 24.8291 7.07634 24.8291C7.07634 24.8291 7.07634 24.8291 7.07634 24.8291C7.07634 24.8291 7.07634 24.8291 7.07634 24.8291C7.07634 24.8291 7.07634 24.8291 7.07634 24.8291C7.07634 24.8291 7.07634 24.8291 7.07634 24.8291C7.07634 24.8291 7.07634 24.8291 7.07634 24.8291C7.07634 24.8291 7.07634 24.8291 7.07634 24.8291C7.07634 24.8291 7.07634 24.8291 7.07634 24.8291C7.07634 24.8291 7.07634 24.8291 7.07634 24.8291C7.07634 24.8291 7.07634 24.8291 7.07634 24.8291C7.07634 24.8291 7.07634 24.8291 7.07634 24.8291C7.07634 24.8291 7.07634 24.8291 7.07634 24.8291C7.07634 24.8291 7.07634 24.8291 7.07634 24.8291C7.07634 24.8291 7.07634 24.8291 7.07634 24.8291C7.07634 24.8291 7.07634 24.8291 7.07634 24.8291C7.07634 24.8291 7.07634 24.8291 7.07634 24.8291C7.07634 24.8291 7.07634 24.8291 7.07634 24.8291C7.07634 24.8291 7.07634 24.8291 7.07634 24.8291C7.07634 24.8291 7.07634 24.8291 7.07634 24.8291C7.07634 24.8291 7.07634 24.8291 7.07634 24.8291C7.07634 24.8291 7.07634 24.8291 7.07634 24.8291C7.07634 24.8291 7.07634 24.8291 7.07634 24.8291C7.07634 24.8291 7.07634 24.8291 7.07634 24.8291C7.07635 24.8291 7.07635 24.8291 7.07635 24.8291C7.07635 24.8291 7.07635 24.8291 7.07635 24.8291C7.07635 24.8291 7.07635 24.8291 7.07635 24.8291C7.07635 24.8291 7.07635 24.8291 7.07635 24.8291C7.07635 24.8291 7.07635 24.8291 7.07635 24.8291C7.07635 24.8291 7.07635 24.8291 7.07635 24.8291C7.07635 24.8291 7.07635 24.8291 7.07635 24.8291C7.07635 24.8291 7.07635 24.8291 7.07635 24.8291C7.07635 24.8291 7.07635 24.8291 7.07635 24.8291C7.07635 24.8291 7.07635 24.8291 7.07635 24.8291C7.07635 24.8291 7.07635 24.8291 7.07635 24.8291C7.07635 24.8291 7.07635 24.8291 7.07635 24.8291C7.07635 24.8291 7.07635 24.8291 7.07635 24.8291C7.07635 24.8291 7.07635 24.8291 7.07635 24.8291C7.07635 24.8291 7.07635 24.8291 7.07635 24.8291C7.07635 24.8291 7.07635 24.8291 7.07635 24.8291C7.07635 24.8291 7.07635 24.8291 7.07635 24.8291C7.07635 24.8291 7.07635 24.8291 7.07635 24.8291C7.07635 24.8291 7.07635 24.8291 7.07635 24.8291C7.07635 24.8291 7.07635 24.8291 7.07635 24.8291C7.07635 24.8291 7.07635 24.8291 7.07635 24.8291C7.07635 24.8291 7.07635 24.8291 7.07635 24.8291C7.07635 24.8291 7.07635 24.8291 7.07635 24.8291C7.07635 24.8291 7.07635 24.8291 7.07635 24.8291C7.07635 24.8291 7.07635 24.8291 7.07635 24.8291C7.07635 24.8291 7.07635 24.8291 7.07635 24.8291C7.07635 24.8291 7.07635 24.8291 7.07635 24.8291C7.07635 24.8291 7.07635 24.8291 7.07635 24.8291C7.07635 24.8291 7.07635 24.8291 7.07635 24.8291C7.07635 24.8291 7.07635 24.8291 7.07635 24.8291C7.07635 24.8291 7.07635 24.8291 7.07635 24.8291C7.07635 24.8291 7.07635 24.8291 7.07635 24.8291C7.07635 24.8291 7.07635 24.8291 7.07635 24.8291C7.07635 24.8291 7.07635 24.8291 7.07635 24.8291C7.07635 24.8291 7.07635 24.8291 7.07635 24.8291C7.07635 24.8291 7.07635 24.8291 7.07635 24.8291C7.07635 24.8291 7.07635 24.8291 7.07635 24.8291C7.07635 24.8291 7.07635 24.8291 7.07635 24.8291C7.07635 24.8291 7.07635 24.8291 7.07635 24.8291C7.07635 24.8291 7.07635 24.8291 7.07635 24.8291C7.07635 24.8291 7.07635 24.8291 7.07635 24.8291C7.07635 24.8291 7.07635 24.8291 7.07635 24.8291C7.07635 24.8291 7.07635 24.8291 7.07635 24.8291C7.07635 24.8291 7.07635 24.8291 7.07635 24.8291C7.07635 24.8291 7.07635 24.8291 7.07635 24.8291C7.07635 24.8291 7.07635 24.8291 7.07635 24.8291C7.07635 24.8291 7.07635 24.8291 7.07635 24.8291C7.07635 24.8291 7.07635 24.8291 7.07635 24.8291C7.07635 24.8291 7.07635 24.8291 7.07635 24.8291C7.07635 24.8291 7.07635 24.8291 7.07635 24.8291C7.07635 24.8291 7.07635 24.8291 7.07635 24.8291C7.07635 24.8291 7.07635 24.8291 7.07635 24.8291C7.07635 24.8291 7.07635 24.8291 7.07635 24.8291C7.07635 24.8291 7.07635 24.8291 7.07635 24.8291C7.07635 24.8291 7.07635 24.8291 7.07635 24.8291C7.07635 24.8291 7.07635 24.8291 7.07635 24.8291C7.07635 24.8291 7.07635 24.8291 7.07635 24.8291C7.07635 24.8291 7.07635 24.8291 7.07635 24.8291C7.07635 24.8291 7.07635 24.8291 7.07635 24.8291C7.07635 24.8291 7.07635 24.8291 7.07635 24.8291C7.07635 24.8291 7.07635 24.8291 7.07635 24.8291C7.07635 24.8291 7.07635 24.8291 7.07635 24.8291C7.07635 24.8291 7.07635 24.8291 7.07635 24.8291C7.07635 24.8291 7.07635 24.8291 7.07635 24.8291C7.07635 24.8291 7.07635 24.8291 7.07635 24.8291C7.07635 24.8291 7.07635 24.8291 7.07635 24.8291C7.07635 24.8291 7.07635 24.8291 7.07635 24.8291C7.07635 24.8291 7.07635 24.8291 7.07635 24.8291C7.07635 24.8291 7.07635 24.8291 7.07635 24.8291C7.07635 24.8291 7.07635 24.8291 7.07635 24.8291C7.07635 24.8291 7.07635 24.8291 7.07635 24.8291C7.07635 24.8291 7.07635 24.8291 7.07635 24.8291C7.07635 24.8291 7.07635 24.8291 7.07635 24.8291C7.07635 24.8291 7.07635 24.8291 7.07635 24.8291C7.07635 24.8291 7.07635 24.8291 7.07635 24.8291C7.07635 24.8291 7.07635 24.8291 7.07635 24.8291C7.07635 24.8291 7.07635 24.8291 7.07635 24.8291C7.07635 24.8291 7.07635 24.8291 7.07635 24.8291C7.07635 24.8291 7.07635 24.8291 7.07635 24.8291C7.07635 24.8291 7.07635 24.8291 7.07635 24.8291C7.07635 24.8291 7.07635 24.8291 7.07635 24.8291C7.07635 24.8291 7.07635 24.8291 7.07635 24.8291C7.07635 24.8291 7.07635 24.8291 7.07635 24.8291C7.07635 24.8291 7.07635 24.8291 7.07635 24.8291C7.07635 24.8291 7.07635 24.8291 7.07635 24.8291C7.07635 24.8291 7.07635 24.8291 7.07635 24.8291C7.07635 24.8291 7.07635 24.8291 7.07635 24.8291C7.07635 24.8291 7.07635 24.8291 7.07635 24.8291C7.07635 24.8291 7.07635 24.8291 7.07635 24.8291C7.07635 24.8291 7.07635 24.8291 7.07635 24.8291C7.07635 24.8291 7.07635 24.8291 7.07635 24.8291C7.07635 24.8291 7.07635 24.8291 7.07635 24.8291C7.07635 24.8291 7.07635 24.8291 7.07635 24.8291C7.07635 24.8291 7.07635 24.8291 7.07635 24.8291C7.07635 24.8291 7.07635 24.8291 7.07635 24.8291C7.07635 24.8291 7.07635 24.8291 7.07635 24.8291C7.07635 24.8291 7.07635 24.8291 7.07635 24.8291C7.07635 24.8291 7.07635 24.8291 7.07635 24.8291C7.07635 24.8291 7.07635 24.8291 7.07635 24.8291C7.07635 24.8291 7.07635 24.8291 7.07635 24.8291C7.07635 24.8291 7.07635 24.8291 7.07635 24.8291C7.07635 24.8291 7.07635 24.8291 7.07635 24.8291C7.07635 24.8291 7.07635 24.8291 7.07635 24.8291C7.07635 24.8291 7.07635 24.8291 7.07635 24.8291C7.07635 24.8291 7.07635 24.8291 7.07635 24.8291C7.07635 24.8291 7.07635 24.8291 7.07635 24.8291C7.07635 24.8291 7.07635 24.8291 7.07635 24.8291C7.07635 24.8291 7.07635 24.8291 7.07635 24.8291C7.07635 24.8291 7.07635 24.8291 7.07635 24.8291C7.07635 24.8291 7.07635 24.8291 7.07635 24.8291C7.07635 24.8291 7.07635 24.8291 7.07635 24.8291C7.07635 24.8291 7.07635 24.8291 7.07635 24.8291C7.07635 24.8291 7.07635 24.8291 7.07635 24.8291C7.07635 24.8291 7.07635 24.8291 7.07635 24.8291C7.07635 24.8291 7.07635 24.8291 7.07635 24.8291C7.07635 24.8291 7.07635 24.8291 7.07635 24.8291C7.07635 24.8291 7.07635 24.8291 7.07635 24.8291C7.07635 24.8291 7.07635 24.8291 7.07635 24.8291C7.07635 24.8291 7.07635 24.8291 7.07635 24.8291C7.07635 24.8291 7.07635 24.8291 7.07635 24.8291C7.07635 24.8291 7.07635 24.8291 7.07635 24.8291C7.07635 24.8291 7.07635 24.8291 7.07635 24.8291C7.07635 24.8291 7.07635 24.8291 7.07635 24.8291C7.07635 24.8291 7.07635 24.8291 7.07635 24.8291C7.07635 24.8291 7.07635 24.8291 7.07635 24.8291C7.07635 24.8291 7.07635 24.8291 7.07635 24.8291C7.07635 24.8291 7.07635 24.8291 7.07635 24.8291C7.07635 24.8291 7.07635 24.8291 7.07635 24.8291C7.07635 24.8291 7.07635 24.8291 7.07635 24.8291C7.07635 24.8291 7.07635 24.8291 7.07635 24.8291C7.07635 24.8291 7.07635 24.8291 7.07635 24.8291C7.07635 24.8291 7.07635 24.8291 7.07635 24.8291C7.07635 24.8291 7.07635 24.8291 7.07635 24.8291C7.07635 24.8291 7.07635 24.8291 7.07635 24.8291C7.07635 24.8291 7.07635 24.8291 7.07635 24.8291C7.07635 24.8291 7.07635 24.8291 7.07635 24.8291C7.07635 24.8291 7.07635 24.8291 7.07635 24.8291C7.07635 24.8291 7.07635 24.8291 7.07635 24.8291C7.07635 24.8291 7.07635 24.8291 7.07635 24.8291C7.07635 24.8291 7.07635 24.8291 7.07635 24.8291C7.07635 24.8291 7.07635 24.8291 7.07635 24.8291C7.07635 24.8291 7.07635 24.8291 7.07635 24.8291C7.07635 24.8291 7.07635 24.8291 7.07635 24.8291C7.07635 24.8291 7.07635 24.8291 7.07635 24.8291C7.07635 24.8291 7.07635 24.8291 7.07635 24.8291C7.07635 24.8291 7.07635 24.8291 7.07635 24.8291C7.07635 24.8291 7.07635 24.8291 7.07635 24.8291C7.07635 24.8291 7.07635 24.8291 7.07635 24.8291C7.07635 24.8291 7.07635 24.8291 7.07635 24.8291C7.07635 24.8291 7.07635 24.8291 7.07635 24.8291C7.07635 24.8291 7.07635 24.8291 7.07635 24.8291C7.07635 24.8291 7.07635 24.8291 7.07635 24.8291C7.07635 24.8291 7.07635 24.8291 7.07635 24.8291C7.07635 24.8291 7.07635 24.8291 7.07635 24.8291C7.07635 24.8291 7.07635 24.8291 7.07635 24.8291C7.07635 24.8291 7.07635 24.8291 7.07635 24.8291C7.07635 24.8291 7.07635 24.8291 7.07635 24.8291C7.07635 24.8291 7.07635 24.8291 7.07635 24.8291C7.07635 24.8291 7.07635 24.8291 7.07635 24.8291C7.07635 24.8291 7.07635 24.8291 7.07635 24.8291C7.07635 24.8291 7.07635 24.8291 7.07635 24.8291C7.07635 24.8291 7.07635 24.8291 7.07635 24.8291C7.07635 24.8291 7.07635 24.8291 7.07635 24.8291C7.07635 24.8291 7.07635 24.8291 7.07635 24.8291C7.07635 24.8291 7.07635 24.8291 7.07635 24.8291C7.07635 24.8291 7.07635 24.8291 7.07635 24.8291C7.07635 24.8291 7.07635 24.8291 7.07635 24.8291C7.07635 24.8291 7.07635 24.8291 7.07635 24.8291C7.07635 24.8291 7.07635 24.8291 7.07635 24.8291C7.07635 24.8291 7.07635 24.8291 7.07635 24.8291C7.07635 24.8291 7.07635 24.8291 7.07635 24.8291C7.07635 24.8291 7.07635 24.8291 7.07635 24.8291C7.07635 24.8291 7.07635 24.8291 7.07635 24.8291C7.07635 24.8291 7.07635 24.8291 7.07635 24.8291C7.07635 24.8291 7.07635 24.8291 7.07635 24.8291C7.07635 24.8291 7.07635 24.8291 7.07635 24.8291C7.07635 24.8291 7.07635 24.8291 7.07635 24.8291C7.07635 24.8291 7.07635 24.8291 7.07635 24.8291C7.07635 24.8291 7.07635 24.8291 7.07635 24.8291C7.07635 24.8291 7.07635 24.8291 7.07635 24.8291C7.07635 24.8291 7.07635 24.8291 7.07635 24.8291C7.07635 24.8291 7.07635 24.8291 7.07635 24.8291C7.07635 24.8291 7.07635 24.8291 7.07635 24.8291C7.07635 24.8291 7.07635 24.8291 7.07635 24.8291C7.07635 24.8291 7.07635 24.8291 7.07635 24.8291C7.07635 24.8291 7.07635 24.8291 7.07635 24.8291C7.07635 24.8291 7.07635 24.8291 7.07635 24.8291C7.07635 24.8291 7.07635 24.8291 7.07635 24.8291C7.07635 24.8291 7.07635 24.8291 7.07635 24.8291C7.07635 24.8291 7.07635 24.8291 7.07635 24.8291C7.07635 24.8291 7.07635 24.8291 7.07635 24.8291C7.07635 24.8291 7.07635 24.8291 7.07635 24.8291C7.07635 24.8291 7.07635 24.8291 7.07635 24.8291C7.07635 24.8291 7.07635 24.8291 7.07635 24.8291C7.07635 24.8291 7.07635 24.8291 7.07635 24.8291C7.07635 24.8291 7.07635 24.8291 7.07635 24.8291C7.07635 24.8291 7.07635 24.8291 7.07635 24.8291C7.07635 24.8291 7.07635 24.8291 7.07635 24.8291C7.07635 24.8291 7.07635 24.8291 7.07635 24.8291C7.07635 24.8291 7.07635 24.8291 7.07635 24.8291C7.07635 24.8291 7.07635 24.8291 7.07635 24.8291C7.07635 24.8291 7.07635 24.8291 7.07635 24.8291C7.07635 24.8291 7.07635 24.8291 7.07635 24.8291C7.07635 24.8291 7.07635 24.8291 7.07635 24.8291C7.07635 24.8291 7.07635 24.8291 7.07635 24.8291C7.07635 24.8291 7.07635 24.8291 7.07635 24.8291C7.07635 24.8291 7.07635 24.8291 7.07635 24.8291C7.07635 24.8291 7.07635 24.8291 7.07635 24.8291C7.07635 24.8291 7.07635 24.8291 7.07635 24.8291C7.07635 24.8291 7.07635 24.8291 7.07635 24.8291C7.07635 24.8291 7.07635 24.8291 7.07635 24.8291C7.07635 24.8291 7.07635 24.8291 7.07635 24.8291C7.07635 24.8291 7.07635 24.8291 7.07635 24.8291C7.07635 24.8291 7.07635 24.8291 7.07635 24.8291C7.07635 24.8291 7.07635 24.8291 7.07635 24.8291C7.07635 24.8291 7.07635 24.8291 7.07635 24.8291C7.07635 24.8291 7.07635 24.8291 7.07635 24.8291C7.07635 24.8291 7.07635 24.8291 7.07635 24.8291C7.07635 24.8291 7.07635 24.8291 7.07635 24.8291C7.07635 24.8291 7.07635 24.8291 7.07635 24.8291C7.07635 24.8291 7.07635 24.8291 7.07635 24.8291C7.07635 24.8291 7.07635 24.8291 7.07635 24.8291C7.07635 24.8291 7.07635 24.8291 7.07635 24.8291C7.07635 24.8291 7.07635 24.8291 7.07635 24.8291C7.07635 24.8291 7.07635 24.8291 7.07635 24.8291C7.07635 24.8291 7.07635 24.8291 7.07635 24.8291C7.07635 24.8291 7.07635 24.8291 7.07635 24.8291C7.07635 24.8291 7.07635 24.8291 7.07635 24.8291C7.07635 24.8291 7.07635 24.8291 7.07635 24.8291C7.07635 24.8291 7.07635 24.8291 7.07635 24.8291C7.07635 24.8291 7.07635 24.8291 7.07635 24.8291C7.07635 24.8291 7.07635 24.8291 7.07635 24.8291C7.07635 24.8291 7.07635 24.8291 7.07635 24.8291C7.07635 24.8291 7.07635 24.8291 7.07635 24.8291C7.07635 24.8291 7.07635 24.8291 7.07635 24.8291C7.07635 24.8291 7.07635 24.8291 7.07635 24.8291C7.07635 24.8291 7.07635 24.8291 7.07635 24.8291V23.8291Z" fill="white"/>
</svg>
